<svg width="18" height="16" viewBox="0 0 18 16" fill="none" xmlns="http://www.w3.org/2000/svg">
<path fill-rule="evenodd" clip-rule="evenodd" d="M16.7002 9.64534C15.9762 8.79229 15.6472 8.05305 15.6472 6.79716V6.37013C15.6472 4.73354 15.2739 3.67907 14.4623 2.62459C13.2113 0.986993 11.1054 0 9.04377 0H8.95611C6.93783 0 4.89789 0.941671 3.62526 2.5128C2.76929 3.58842 2.35263 4.68822 2.35263 6.37013V6.79716C2.35263 8.05305 2.04531 8.79229 1.29966 9.64534C0.751015 10.2738 0.575684 11.0815 0.575684 11.9557C0.575684 12.8309 0.86035 13.6598 1.43165 14.3336C2.1773 15.1413 3.23027 15.6569 4.3059 15.7466C5.86319 15.9258 7.42049 15.9933 9.00043 15.9933C10.5794 15.9933 12.1367 15.8805 13.695 15.7466C14.7696 15.6569 15.8226 15.1413 16.5682 14.3336C17.1385 13.6598 17.4242 12.8309 17.4242 11.9557C17.4242 11.0815 17.2489 10.2738 16.7002 9.64534Z" fill="#CDCDD0"/>
</svg>
